<?xml version="1.0" standalone="no"?>
<!DOCTYPE svg PUBLIC "-//W3C//DTD SVG 20010904//EN"
 "http://www.w3.org/TR/2001/REC-SVG-20010904/DTD/svg10.dtd">
<svg version="1.0" xmlns="http://www.w3.org/2000/svg"
 width="512.000000pt" height="512.000000pt" viewBox="0 0 512.000000 512.000000"
 preserveAspectRatio="xMidYMid meet">
<metadata>
Created by potrace 1.14, written by Peter Selinger 2001-2017
</metadata>
<g transform="translate(0.000000,512.000000) scale(0.100000,-0.100000)"
fill="#000000" stroke="none">
<path d="M2490 4577 c-74 -21 -105 -46 -310 -252 l-195 -195 219 -219 218
-218 41 14 c63 22 179 13 242 -19 135 -70 205 -232 161 -373 l-16 -50 213
-212 212 -213 50 16 c102 32 231 1 308 -74 86 -82 118 -214 83 -335 -21 -73
-95 -156 -168 -187 -215 -92 -448 51 -452 277 0 37 5 87 13 111 l15 43 -210
210 c-115 115 -217 209 -226 209 -17 0 -18 -32 -18 -558 l0 -559 39 -18 c52
-23 115 -89 143 -150 32 -71 32 -189 -1 -263 -30 -66 -113 -144 -177 -166 -61
-21 -167 -21 -228 0 -64 22 -147 100 -177 166 -33 74 -33 192 -1 263 28 61 91
127 143 150 l39 18 0 562 0 562 -39 18 c-53 23 -115 90 -142 149 -29 66 -35
157 -15 221 l16 50 -218 218 -218 218 -627 -635 c-689 -698 -670 -675 -671
-797 0 -126 -42 -79 956 -1075 992 -990 945 -948 1069 -948 126 0 79 -42 1080
961 996 997 944 939 944 1063 0 124 52 66 -944 1063 -721 722 -916 913 -956
932 -62 30 -136 38 -195 22z"/>
</g>
</svg>
